<?xml version="1.0" encoding="UTF-8"?>
<svg id="Camada_1" xmlns="http://www.w3.org/2000/svg" version="1.1" viewBox="0 0 841.9 595.3">
  <!-- Generator: Adobe Illustrator 30.4.0, SVG Export Plug-In . SVG Version: 2.1.4 Build 226)  -->
  <path d="M307.88,247.1c-25.1,0-53.99-15.63-53.99-55.41,0-66.3,77.67-99.92,155.81-99.92s160.54,35.04,160.54,105.13c0,37.41-22.73,64.41-55.41,81.93,47.83,7.58,82.88,48.78,82.88,97.08,0,80.51-81.93,119.34-161.49,119.34s-149.65-35.04-149.65-104.19c0-48.3,28.89-64.88,54.46-64.88,11.84,0,23.2,3.79,29.83,9.95,0,0-39.78,12.31-39.78,53.04,0,56.83,48.3,85.72,98.03,85.72,52.57,0,106.55-32.2,106.55-98.98,0-46.41-25.1-75.3-68.67-80.03-11.37,2.84-22.73,4.26-34.57,5.68v81.93c0,26.99,10.89,36.46,29.83,36.46l-45.46,30.78s-41.67-6.16-41.67-61.56v-197.48c0-26.99-10.42-36.47-29.36-36.47l44.99-30.78s41.67,6.16,41.67,61.56v101.34c41.2-10.42,75.3-40.25,75.3-90.45,0-56.83-55.41-84.3-109.4-84.3-50.2,0-99.45,24.15-99.45,71.51,0,40.25,39.78,52.57,39.78,52.57-6.63,6.63-18.47,10.42-30.78,10.42Z"/>
  <text/>
</svg>